<svg width="48" height="59" viewBox="0 0 48 59" fill="none" xmlns="http://www.w3.org/2000/svg">
<path d="M7.14703 46.9086H40.8321C46.1624 46.9086 49.2051 41.5469 46.0069 37.7897C44.5911 36.1264 43.7185 34.1536 43.4837 32.0847L43.0054 27.8705C42.5055 27.9283 41.9969 27.9581 41.4815 27.9581C34.236 27.9581 28.3624 22.0844 28.3624 14.839C28.3624 12.0086 29.2588 9.38748 30.7831 7.24413C30.7246 7.22349 30.666 7.20311 30.6072 7.183V6.88063C30.6072 3.22578 27.6444 0.262939 23.9896 0.262939C20.3347 0.262939 17.3719 3.22578 17.3719 6.88063V7.183C11.126 9.3215 6.5021 14.4042 5.79912 20.5981L4.49541 32.0847C4.26061 34.1536 3.38806 36.1264 1.9722 37.7897C-1.22602 41.5469 1.81666 46.9086 7.14703 46.9086Z" fill="#22355E"/>
<path d="M23.9896 58.57C27.9443 58.57 31.3208 56.2354 32.6543 52.9478C32.7099 52.8107 32.7356 52.6635 32.7356 52.5155C32.7356 51.8336 32.1828 51.2809 31.501 51.2809H16.4781C15.7963 51.2809 15.2435 51.8336 15.2435 52.5155C15.2435 52.6635 15.2692 52.8107 15.3249 52.9478C16.6583 56.2354 20.0348 58.57 23.9896 58.57Z" fill="#22355E"/>
</svg>
