<svg width="58" height="58" viewBox="0 0 58 58" fill="none" xmlns="http://www.w3.org/2000/svg">
<path d="M15.3592 42.9999H42.6403C46.9573 42.9999 49.4216 38.6576 46.8313 35.6147C45.6847 34.2676 44.978 32.6698 44.7878 30.9943L43.732 21.6914C43.1626 16.6751 39.4178 12.5586 34.3593 10.8266V10.5818C34.3593 7.62174 31.9598 5.22217 28.9997 5.22217C26.0397 5.22217 23.6401 7.62174 23.6401 10.5818V10.8266C18.5817 12.5586 14.8368 16.6751 14.2675 21.6914L13.2116 30.9943C13.0215 32.6698 12.3148 34.2676 11.1681 35.6147C8.57791 38.6576 11.0421 42.9999 15.3592 42.9999Z" fill="#22355E"/>
<path d="M43.732 21.6914L41.9724 21.8911V21.8911L43.732 21.6914ZM44.7878 30.9943L46.5474 30.7946L44.7878 30.9943ZM13.2116 30.9943L11.4521 30.7946H11.4521L13.2116 30.9943ZM14.2675 21.6914L16.027 21.8911L14.2675 21.6914ZM11.1681 35.6147L9.81966 34.4668H9.81966L11.1681 35.6147ZM46.8313 35.6147L45.4829 36.7625L45.4829 36.7625L46.8313 35.6147ZM34.3593 10.8266H32.5885C32.5885 11.5836 33.0696 12.2568 33.7857 12.502L34.3593 10.8266ZM23.6401 10.8266L24.2138 12.502C24.9299 12.2568 25.411 11.5836 25.411 10.8266H23.6401ZM37.7413 48.3436C38.0845 47.4278 37.6203 46.4072 36.7045 46.064C35.7887 45.7207 34.7681 46.1849 34.4249 47.1007L37.7413 48.3436ZM23.5746 47.1007C23.2314 46.1849 22.2107 45.7207 21.2949 46.064C20.3791 46.4072 19.915 47.4278 20.2582 48.3436L23.5746 47.1007ZM42.6403 41.2291H15.3592V44.7708H42.6403V41.2291ZM41.9724 21.8911L43.0283 31.194L46.5474 30.7946L45.4915 21.4917L41.9724 21.8911ZM14.9712 31.194L16.027 21.8911L12.508 21.4917L11.4521 30.7946L14.9712 31.194ZM12.5166 36.7625C13.8797 35.1612 14.7393 33.2371 14.9712 31.194L11.4521 30.7946C11.3037 32.1025 10.7499 33.374 9.81966 34.4668L12.5166 36.7625ZM43.0283 31.194C43.2602 33.2371 44.1198 35.1612 45.4829 36.7625L48.1798 34.4668C47.2495 33.374 46.6958 32.1025 46.5474 30.7946L43.0283 31.194ZM15.3592 41.2291C13.8125 41.2291 12.7185 40.4642 12.2135 39.5744C11.7261 38.7154 11.7332 37.6827 12.5166 36.7625L9.81966 34.4668C8.01277 36.5895 7.95697 39.2495 9.1333 41.3224C10.2922 43.3645 12.5888 44.7708 15.3592 44.7708V41.2291ZM42.6403 44.7708C45.4107 44.7708 47.7073 43.3645 48.8662 41.3224C50.0425 39.2495 49.9867 36.5895 48.1798 34.4668L45.4829 36.7625C46.2662 37.6827 46.2734 38.7154 45.7859 39.5744C45.2809 40.4642 44.1869 41.2291 42.6403 41.2291V44.7708ZM36.1302 10.8266V10.5818H32.5885V10.8266H36.1302ZM45.4915 21.4917C44.8322 15.6825 40.5233 11.0654 34.9329 9.15129L33.7857 12.502C38.3123 14.0518 41.4931 17.6676 41.9724 21.8911L45.4915 21.4917ZM25.411 10.8266V10.5818H21.8693V10.8266H25.411ZM16.027 21.8911C16.5064 17.6676 19.6872 14.0518 24.2138 12.502L23.0665 9.15129C17.4762 11.0654 13.1673 15.6825 12.508 21.4917L16.027 21.8911ZM28.9997 6.993C30.9817 6.993 32.5885 8.59974 32.5885 10.5818H36.1302C36.1302 6.64374 32.9378 3.45133 28.9997 3.45133V6.993ZM28.9997 3.45133C25.0617 3.45133 21.8693 6.64374 21.8693 10.5818H25.411C25.411 8.59974 27.0177 6.993 28.9997 6.993V3.45133ZM34.4249 47.1007C33.6629 49.1339 31.5605 50.6736 28.9997 50.6736V54.2152C32.9793 54.2152 36.4411 51.8128 37.7413 48.3436L34.4249 47.1007ZM28.9997 50.6736C26.4389 50.6736 24.3366 49.1339 23.5746 47.1007L20.2582 48.3436C21.5583 51.8128 25.0201 54.2152 28.9997 54.2152V50.6736Z" fill="#22355E"/>
</svg>
